<svg width="61" height="19" viewBox="0 0 61 19" fill="none" xmlns="http://www.w3.org/2000/svg">
<path d="M26.4334 18.7259H21.4919L24.5827 0.333374H29.5238L26.4334 18.7259Z" fill="#A2C8FB"/>
<path d="M44.3464 0.783042C43.3717 0.410896 41.8258 0 39.9143 0C35.0345 0 31.5982 2.50438 31.5771 6.08489C31.5365 8.72658 34.0374 10.1938 35.9078 11.0747C37.8196 11.9747 38.4695 12.5622 38.4695 13.3645C38.45 14.5967 36.9246 15.1646 35.5019 15.1646C33.5291 15.1646 32.472 14.8718 30.8656 14.1863L30.2149 13.8924L29.5234 18.0211C30.6824 18.5293 32.8176 18.9802 35.0345 19C40.2194 19 43.5949 16.5344 43.6349 12.7188C43.6546 10.625 42.3341 9.02071 39.4871 7.70975C37.7588 6.86819 36.7004 6.30074 36.7004 5.43968C36.7206 4.6569 37.5956 3.85513 39.5465 3.85513C41.153 3.81586 42.3333 4.18749 43.2274 4.55938L43.6743 4.75468L44.3464 0.783042Z" fill="#A2C8FB"/>
<path d="M50.914 12.2101C51.3209 11.1534 52.8868 7.06399 52.8868 7.06399C52.8663 7.10326 53.293 5.98786 53.537 5.30313L53.8823 6.88793C53.8823 6.88793 54.8181 11.2905 55.0213 12.2101C54.249 12.2101 51.89 12.2101 50.914 12.2101ZM57.0136 0.333374H53.1914C52.0127 0.333374 51.1172 0.665731 50.6087 1.85941L43.2688 18.7256H48.4537C48.4537 18.7256 49.3073 16.4556 49.4908 15.9666C50.0596 15.9666 55.1034 15.9666 55.8352 15.9666C55.977 16.6124 56.4248 18.7256 56.4248 18.7256H61.0001L57.0136 0.333374Z" fill="#A2C8FB"/>
<path d="M17.3645 0.333374L12.5252 12.8753L11.9964 10.3317C11.1017 7.39661 8.29581 4.20775 5.16455 2.62216L9.59716 18.7064H14.8226L22.5897 0.333374H17.3645Z" fill="#A2C8FB"/>
<path d="M8.03161 0.333374H0.0813344L0 0.705C6.20171 2.23129 10.309 5.91037 11.9965 10.3324L10.2682 1.87943C9.98364 0.70474 9.10923 0.372123 8.03161 0.333374Z" fill="#A2C8FB"/>
</svg>
