<svg width="19" height="6" viewBox="0 0 19 6" fill="none" xmlns="http://www.w3.org/2000/svg">
<g clip-path="url(#clip0_1_311)">
<path d="M7.79992 5.52574H6.3418L7.25381 0.0984497H8.71186L7.79992 5.52574Z" fill="#3D70FF"/>
<path d="M13.0859 0.231122C12.7983 0.121309 12.3421 6.10352e-05 11.7781 6.10352e-05C10.3381 6.10352e-05 9.32412 0.739058 9.3179 1.7956C9.30594 2.57512 10.0439 3.00808 10.5958 3.26799C11.16 3.53359 11.3517 3.70694 11.3517 3.94368C11.346 4.30727 10.8959 4.47487 10.4761 4.47487C9.89391 4.47487 9.58199 4.38846 9.10796 4.18618L8.91596 4.09946L8.71191 5.31777C9.0539 5.46772 9.68397 5.60079 10.3381 5.60662C11.8681 5.60662 12.8641 4.87905 12.8759 3.75314C12.8818 3.13531 12.4921 2.66191 11.652 2.27507C11.142 2.02674 10.8297 1.8593 10.8297 1.60521C10.8357 1.37423 11.0939 1.13764 11.6695 1.13764C12.1436 1.12605 12.4919 1.23571 12.7557 1.34545L12.8876 1.40308L13.0859 0.231122Z" fill="#3D70FF"/>
<path d="M15.0238 3.60305C15.1439 3.29126 15.6059 2.08453 15.6059 2.08453C15.5999 2.09612 15.7258 1.76699 15.7978 1.56493L15.8997 2.03258C15.8997 2.03258 16.1758 3.3317 16.2358 3.60305C16.0079 3.60305 15.3118 3.60305 15.0238 3.60305ZM16.8237 0.0984497H15.6958C15.348 0.0984497 15.0837 0.196522 14.9337 0.548755L12.7678 5.52567H14.2978C14.2978 5.52567 14.5497 4.85581 14.6038 4.71154C14.7717 4.71154 16.26 4.71154 16.4759 4.71154C16.5178 4.90209 16.6499 5.52567 16.6499 5.52567H18L16.8237 0.0984497Z" fill="#3D70FF"/>
<path d="M5.12391 0.0984497L3.69592 3.79934L3.53988 3.04876C3.27588 2.18268 2.4479 1.24171 1.52393 0.77383L2.83191 5.51999H4.37384L6.66576 0.0984497H5.12391Z" fill="#3D70FF"/>
<path d="M2.36998 0.0984497H0.0240003L0 0.20811C1.83001 0.658491 3.04199 1.74412 3.53994 3.04899L3.02995 0.554663C2.94599 0.208033 2.68797 0.109884 2.36998 0.0984497Z" fill="#3D70FF"/>
</g>
<defs>
<clipPath id="clip0_1_311">
<rect width="18.7981" height="5.72115" fill="white"/>
</clipPath>
</defs>
</svg>
